#!OML:ASF E:\emotionWalksFemale\Project 1\Capture day 1\Session 1\Female1.ASF
:FULLY-SPECIFIED
:DEGREES
1749
root 9.59347 15.1692 39.999 -178.709 -9.91525 -540.367
lowerback 3.07935 1.09236 1.40743
upperback -4.82237 1.38125 -0.381238
thorax -6.70117 0.535198 -1.30016
lowerneck -9.77571 0.0258289 0.297561
upperneck 19.7109 1.39215 -13.5397
head 7.7975 -1.11465 -4.4986
rclavicle 9.47023e-015 -1.11816e-015
rhumerus -61.4123 8.86252 -71.6099
rradius 37.7726
rwrist 8.71578
rhand -7.79332 -53.1633
rfingers 7.12502
rthumb 18.1077 -442.34
lclavicle 9.47023e-015 -1.11816e-015
lhumerus -52.5794 7.21205 77.3087
lradius 36.458
lwrist -13.3769
lhand -11.6568 -33.0768
lfingers 7.12502
lthumb 14.3877 -3.59542
rfemur -1.85641 20.036 26.9998
rtibia 25.8733
rfoot -27.7997 -33.0718
rtoes 5.9549
lfemur -10.4508 -17.8689 -24.4363
ltibia 34.1728
lfoot -25.2386 11.5516
ltoes -30.1643
1750
root 9.58551 15.1777 39.9871 -178.768 -9.34625 -540.368
lowerback 3.06823 1.1012 1.39815
upperback -4.85286 1.39664 -0.25389
thorax -6.72997 0.544945 -1.16348
lowerneck -10.0414 0.272754 0.090693
upperneck 20.0775 1.75446 -13.2658
head 7.99529 -0.967941 -4.35594
rclavicle -1.75179e-014 -4.96962e-015
rhumerus -60.8424 8.39099 -70.5788
rradius 37.2468
rwrist 9.8256
rhand -8.20164 -53.5589
rfingers 7.12502
rthumb 17.7148 -442.772
lclavicle -1.75179e-014 -4.96962e-015
lhumerus -53.0146 7.72949 76.984
lradius 36.5894
lwrist -13.9628
lhand -11.1811 -33.3022
lfingers 7.12502
lthumb 14.8461 -3.85404
rfemur -1.87533 20.0332 26.9256
rtibia 25.9745
rfoot -27.0786 -32.7244
rtoes 5.19107
lfemur -10.1988 -18.086 -24.5033
ltibia 34.0417
lfoot -25.2365 11.8405
ltoes -29.6229
1751
root 9.57722 15.1849 39.9776 -178.876 -8.69768 -540.319
lowerback 3.14243 1.19065 1.44652
upperback -4.90003 1.52283 -0.170942
thorax -6.82051 0.604369 -1.11719
lowerneck -10.3906 0.422849 0.18209
upperneck 20.6717 1.98359 -13.2402
head 8.27734 -0.905477 -4.37255
rclavicle 1.50331e-014 7.95139e-016
rhumerus -60.3026 7.65405 -69.5742
rradius 36.593
rwrist 10.5422
rhand -8.40639 -54.0992
rfingers 7.12502
rthumb 17.5178 -443.33
lclavicle 1.50331e-014 7.95139e-016
lhumerus -53.1698 8.05762 76.691
lradius 36.2451
lwrist -14.9152
lhand -11.5659 -33.6434
lfingers 7.12502
lthumb 14.4753 -4.16827
rfemur -1.82705 20.0726 26.8842
rtibia 25.9687
rfoot -26.65 -32.1264
rtoes 5.02578
lfemur -9.92785 -18.2999 -24.5497
ltibia 34.0118
lfoot -25.3646 12.1016
ltoes -28.5935
1752
root 9.57037 15.1898 39.9675 -179.175 -8.14492 -540.48
lowerback 3.11468 1.24935 1.59469
upperback -4.6969 1.61104 -0.370447
thorax -6.57635 0.644721 -1.41293
lowerneck -10.5609 0.53525 0.551714
upperneck 20.7921 2.09689 -13.1687
head 8.35765 -0.819105 -4.40669
rclavicle 4.02353e-014 5.11871e-015
rhumerus -59.6545 6.55532 -68.9206
rradius 35.9746
rwrist 10.8673
rhand -8.65841 -54.9786
rfingers 7.12502
rthumb 17.2752 -444.231
lclavicle 4.02353e-014 5.11871e-015
lhumerus -52.6526 7.72375 76.6268
lradius 35.3681
lwrist -15.5515
lhand -11.6418 -32.8399
lfingers 7.12502
lthumb 14.4021 -3.35958
rfemur -1.47096 20.0886 26.7288
rtibia 25.9195
rfoot -26.3174 -31.8432
rtoes 5.2259
lfemur -9.42982 -18.3564 -24.8848
ltibia 34.0195
lfoot -25.5296 12.4847
ltoes -28.8509
1753
root 9.56482 15.1988 39.9561 -179.431 -7.56745 -540.266
lowerback 3.38442 1.32682 1.99076
upperback -4.73324 1.74625 -0.387171
thorax -6.75507 0.688583 -1.67159
lowerneck -10.892 0.675475 0.89983
upperneck 21.2129 2.28549 -13.2628
head 8.57993 -0.749183 -4.50455
rclavicle -1.52381e-014 -3.52843e-015
rhumerus -59.3127 5.66387 -68.3243
rradius 35.4977
rwrist 10.6464
rhand -8.83936 -55.4181
rfingers 7.12502
rthumb 17.1011 -444.685
lclavicle -1.52381e-014 -3.52843e-015
lhumerus -52.6647 7.37642 76.6647
lradius 35.1251
lwrist -15.7924
lhand -11.2901 -32.2927
lfingers 7.12502
lthumb 14.7411 -2.83686
rfemur -1.25629 20.0928 26.9554
rtibia 25.9395
rfoot -25.8714 -31.7218
rtoes 4.21268
lfemur -9.03772 -18.49 -24.7801
ltibia 33.9962
lfoot -25.5767 12.9643
ltoes -29.4901
1754
root 9.5608 15.2066 39.945 -179.531 -6.8944 -540.003
lowerback 3.25022 1.41272 2.5329
upperback -4.67038 1.89017 -0.465851
thorax -6.58627 0.734242 -2.06498
lowerneck -11.1141 0.817142 1.23801
upperneck 21.3835 2.45012 -13.2523
head 8.69458 -0.654954 -4.55277
rclavicle 3.74367e-014 1.41634e-015
rhumerus -58.6591 4.51703 -67.7968
rradius 34.8771
rwrist 10.3251
rhand -8.79931 -55.3561
rfingers 7.12502
rthumb 17.1396 -444.62
lclavicle 3.74367e-014 1.41634e-015
lhumerus -52.5686 7.26283 76.3607
lradius 35.1738
lwrist -15.7798
lhand -9.95059 -32.495
lfingers 7.12502
lthumb 16.0312 -3.13825
rfemur -1.32664 20.1382 27.1679
rtibia 26.0962
rfoot -25.5603 -31.1828
rtoes 4.20491
lfemur -8.79155 -18.4643 -24.5525
ltibia 33.8659
lfoot -25.4897 13.4485
ltoes -30.6464
